<?xml version="1.0" encoding="utf-8"?>
<!-- Generator: Adobe Illustrator 27.0.1, SVG Export Plug-In . SVG Version: 6.00 Build 0)  -->
<svg version="1.1" id="Layer_1" xmlns="http://www.w3.org/2000/svg" xmlns:xlink="http://www.w3.org/1999/xlink" x="0px" y="0px"
	 viewBox="0 0 664 665" style="enable-background:new 0 0 664 665;" xml:space="preserve">
<style type="text/css">
	.st0{opacity:0.2;fill:url(#SVGID_1_);enable-background:new    ;}
	.st1{fill:url(#SVGID_00000057121428938224494090000012486690931154424714_);filter:url(#Adobe_OpacityMaskFilter);}
	.st2{mask:url(#mask0_415_11747_00000178168979877529098830000003083861539651761025_);}
	.st3{fill:#FFFFFF;}
	.st4{fill:#FFFFFF;fill-opacity:0.1;}
	.st5{fill:none;stroke:#FFFFFF;stroke-width:0.9379;stroke-opacity:0.2;}
	.st6{fill:none;stroke:#FFFFFF;stroke-width:2.739;}
	.st7{fill-rule:evenodd;clip-rule:evenodd;fill:#FFFFFF;fill-opacity:0.2;}
	.st8{opacity:0.39;fill:#FFFFFF;}
	.st9{opacity:0.5;}
</style>
<radialGradient id="SVGID_1_" cx="121.4768" cy="480.289" r="1" gradientTransform="matrix(2.141656e-14 349.759 349.759 -2.141656e-14 -167653.3906 -42154.6602)" gradientUnits="userSpaceOnUse">
	<stop  offset="0" style="stop-color:#FFFFFF"/>
	<stop  offset="1" style="stop-color:#FFFFFF;stop-opacity:0"/>
</radialGradient>
<path class="st0" d="M663.5,504.1V333.9h0.5V332h-0.5V161.8c0-41.7-16.3-81.8-45.3-111.8v-3.1h45.3V45h-44l42.2-42.5l-1.3-1.3
	l-42.2,42.5V2.1h-1.9V45h-3.2c-29.5-28.2-68.8-44-109.7-44H160C119.2,1,79.9,16.8,50.4,45h-3.2V2.1h-1.9v41.5L3.1,1.2L1.8,2.5
	L44,44.9H2.7v1.9h42.6V50C16.2,79.9,0,120,0,161.8v342.3c0,41.7,16.2,81.8,45.3,111.8v3.1H2.7v1.9H44L1.8,663.4l1.3,1.3l42.2-42.5
	v41.5h1.9v-42.8h3.2c29.5,28.2,68.8,44,109.7,44h343.4c40.9,0,80.1-15.8,109.7-44h3.2v42.8h1.9v-41.5l42.2,42.5l1.3-1.3l-42.2-42.5
	H664V619h-45.8v-3.1C647.2,585.9,663.4,545.8,663.5,504.1z M661.6,504.1c0,40.6-15.5,79.6-43.4,109.1V451.9h42.7V450h-42.7V333.9
	h43.4V504.1z M449.5,450l-1.3-1.3c2.1-2.2,4.2-4.4,6.2-6.7v8H449.5z M454.5,451.9v3.1l-3.1-3.1H454.5z M210.1,450v-6.8
	c1.7,1.9,3.4,3.7,5.1,5.5l-1.3,1.3H210.1z M212.1,451.9l-2,2v-2L212.1,451.9z M213.9,215.8l1.3,1.3c-1.8,1.8-3.5,3.6-5.1,5.5v-6.8
	H213.9z M210.1,214v-2l2,2L210.1,214z M454.5,215.8v8c-2-2.3-4.1-4.5-6.2-6.7l1.3-1.3H454.5z M451.4,214l3.1-3.1v3.1H451.4z
	 M454.5,332h-4.4c-0.2-30.9-12.4-60.5-34-82.5l30.9-31c2.6,2.6,5.1,5.4,7.5,8.2L454.5,332z M456.3,228.9c24,29,37.2,65.4,37.3,103.1
	h-37.3V228.9z M414.7,250.8c21.3,21.7,33.3,50.8,33.5,81.2H334L414.7,250.8z M332.7,330.5V215.8c30.3,0.2,59.3,12.3,80.7,33.6
	L332.7,330.5z M330.8,330.5L250,249.4c21.5-21.3,50.5-33.3,80.7-33.5V330.5z M329.5,331.8H215.3c0.2-30.4,12.2-59.5,33.5-81.2
	L329.5,331.8z M329.5,333.7l-80.7,81.2c-21.3-21.7-33.3-50.8-33.5-81.2H329.5z M330.8,335v115c-30.3-0.2-59.3-12.3-80.7-33.6
	L330.8,335z M332.7,335l80.7,81.2C392,437.6,363,449.8,332.7,450V335z M334,333.7h114.2c-0.2,30.4-12.2,59.5-33.5,81.2L334,333.7z
	 M445.6,217.1l-30.9,31c-17-16.8-38.6-28.1-62.1-32.3h91.7L445.6,217.1z M332.7,214v-43.8c40.8,0.2,80,15.9,109.6,43.9L332.7,214z
	 M330.8,214H221.2c29.7-28,68.9-43.7,109.6-43.9V214z M310.9,215.8c-23.5,4.2-45.2,15.5-62.1,32.3l-30.9-31l1.3-1.3H310.9z
	 M216.5,218.4l30.9,31c-21.6,22-33.8,51.6-34,82.5h-3.3V225.4C212.2,223.1,214.3,220.7,216.5,218.4L216.5,218.4z M208.2,331.9h-38.4
	c0.1-38.2,13.8-75.2,38.4-104.4V331.9z M208.2,333.8v104.4c-24.7-29.2-38.3-66.1-38.4-104.4H208.2z M210.1,333.8h3.3
	c0.2,30.9,12.4,60.5,34,82.5l-30.9,31c-2.2-2.3-4.4-4.6-6.4-7L210.1,333.8z M217.9,448.8l30.9-31c17,16.8,38.6,28.1,62.1,32.3h-91.7
	L217.9,448.8z M330.8,451.9v43.9c-40.8-0.2-80-15.9-109.6-43.9H330.8z M332.7,451.9h109.6c-29.7,28-68.9,43.7-109.6,43.9V451.9z
	 M352.6,450c23.5-4.2,45.2-15.5,62.1-32.3l30.9,31l-1.3,1.3H352.6z M446.9,447.5l-30.9-31c21.6-22,33.8-51.6,34-82.5h4.4v105.3
	C452,442,449.5,444.8,446.9,447.5z M456.3,333.9h37.3c-0.1,37.7-13.3,74.1-37.3,103.1V333.9z M495.6,332.1
	c-0.1-38.9-14-76.4-39.2-106v-10.2h99c18.6,35.9,28.4,75.7,28.5,116.1L495.6,332.1z M456.3,214v-5l54.3-54.5
	c17.4,17.6,32.1,37.7,43.7,59.5H456.3z M456.3,206.4v-93.8c19.4,11.1,37.2,24.7,53,40.5L456.3,206.4z M454.5,208.3l-5.7,5.7H445
	c-30.2-29.2-70.4-45.6-112.4-45.8V79.6c42.7,0.1,84.6,11.1,121.8,32V208.3z M330.8,168.2c-41.9,0.2-82.2,16.6-112.4,45.7h-3.7
	l-4.6-4.7V111c36.9-20.5,78.5-31.3,120.7-31.4V168.2z M208.2,207.4l-54-54.3c16.1-16.1,34.3-29.9,54-41.1V207.4z M208.2,210.1v3.9
	h-99.1c11.6-21.9,26.3-41.9,43.7-59.5L208.2,210.1z M208.2,215.9v8.9c-25.9,29.8-40.2,67.8-40.3,107.3H79.7
	c0.1-40.4,9.8-80.3,28.5-116.2L208.2,215.9z M167.9,333.9c0.2,39.4,14.5,77.5,40.3,107.3v8.9h-100c-18.6-35.9-28.4-75.7-28.5-116.1
	L167.9,333.9z M208.2,451.9v3.9l-55.3,55.6c-17.4-17.6-32.1-37.7-43.7-59.5L208.2,451.9z M208.2,458.4v95.4
	c-19.8-11.2-38-25-54-41.1L208.2,458.4z M210.1,456.6l4.6-4.7h3.7c30.2,29.2,70.4,45.5,112.4,45.7v88.7
	c-42.2-0.1-83.8-10.9-120.7-31.4V456.6z M332.7,497.7c41.9-0.2,82.2-16.6,112.4-45.7h3.7l5.7,5.7v96.6
	c-37.2,20.9-79.1,31.9-121.8,32V497.7z M456.3,459.5l53,53.2c-15.8,15.8-33.6,29.4-53,40.5V459.5z M456.3,456.9v-5h98
	c-11.6,21.9-26.3,41.9-43.7,59.5L456.3,456.9z M456.3,450v-10.1c25.2-29.6,39.1-67.1,39.2-106h88.2c-0.1,40.4-9.8,80.3-28.5,116.1
	H456.3z M585.6,333.9h30.7V450h-58.9C575.9,414.1,585.5,374.3,585.6,333.9L585.6,333.9z M585.6,332c-0.1-40.4-9.8-80.2-28.2-116.2
	h58.9V332L585.6,332z M556.4,214c-11.7-22.4-26.7-42.9-44.5-60.9L615.1,49.5l0.1,0.1c0.4,0.4,0.8,0.8,1.2,1.3V214L556.4,214z
	 M613.7,48.2L510.6,151.8c-16.2-16.1-34.4-30-54.3-41.3V46.9h156L613.7,48.2z M454.5,109.5c-37.3-20.7-79.2-31.7-121.8-31.8V46.8
	h121.8V109.5z M332.7,45V2.8h121.8V45H332.7z M330.8,45H210.1V2.8h120.7V45z M330.8,46.9v30.9c-42.2,0.1-83.7,10.8-120.7,31.2v-62
	H330.8z M208.2,109.9c-20.3,11.4-38.9,25.5-55.3,41.9L49.8,48.2l1.3-1.3h157.1V109.9z M48.3,49.5L48.3,49.5l103.2,103.6
	c-17.7,18-32.7,38.5-44.5,60.9H47.2V50.8C47.6,50.4,47.9,49.9,48.3,49.5z M106.1,215.8C87.6,251.8,77.9,291.6,77.8,332H47.2V215.8
	H106.1z M77.8,333.9c0.1,40.4,9.8,80.2,28.2,116.2H47.2V333.9L77.8,333.9z M107.1,451.9c11.7,22.4,26.7,42.9,44.5,60.9L48.4,616.4
	l-0.1-0.1c-0.4-0.4-0.8-0.8-1.2-1.3V451.9L107.1,451.9z M49.8,617.7l103.1-103.6c16.5,16.4,35.1,30.5,55.3,41.9V619H51.1L49.8,617.7
	z M210.1,557c37,20.3,78.5,31.1,120.7,31.2v30.9H210.1V557z M330.8,620.9v42.2H210.1v-42.2H330.8z M332.7,620.9h121.8v42.2H332.7
	V620.9z M332.7,619v-30.9c42.6-0.1,84.5-11,121.8-31.8V619L332.7,619z M456.3,555.4c19.9-11.3,38.1-25.2,54.3-41.3l103.1,103.6
	l-1.3,1.3H456.3V555.4z M615.1,616.3L615.1,616.3L511.9,512.8c17.7-18,32.7-38.5,44.5-60.9h59.9v163.2L615.1,616.3z M661.6,161.8
	V332h-43.4V215.8h42.7V214h-42.7V52.7C646,82.2,661.6,121.2,661.6,161.8z M610.4,44.9H456.3V2.8h47.1
	C543.1,2.8,581.3,17.9,610.4,44.9L610.4,44.9z M160,2.8h48.2v42.2H53.1C82.1,17.9,120.3,2.8,160,2.8L160,2.8z M1.9,504.1V161.8
	c0-40.6,15.5-79.6,43.4-109.1v161.2H2.6v1.9h42.7V332H2.4v1.9h42.9V450H2.6v1.9h42.7v161.2C17.4,583.7,1.9,544.7,1.9,504.1z
	 M53.1,620.9h155.1v42.2H160C120.3,663.1,82.1,648,53.1,620.9L53.1,620.9z M503.5,663.1h-47.1v-42.2h154.1
	C581.3,648,543.1,663,503.5,663.1L503.5,663.1z"/>
<defs>
	<filter id="Adobe_OpacityMaskFilter" filterUnits="userSpaceOnUse" x="103.5" y="24.7" width="391.8" height="614.9">
		<feColorMatrix  type="matrix" values="1 0 0 0 0  0 1 0 0 0  0 0 1 0 0  0 0 0 1 0"/>
	</filter>
</defs>
<mask maskUnits="userSpaceOnUse" x="103.5" y="24.7" width="391.8" height="614.9" id="mask0_415_11747_00000178168979877529098830000003083861539651761025_">
	
		<linearGradient id="SVGID_00000103260326123163031360000010667533074333985205_" gradientUnits="userSpaceOnUse" x1="164.0152" y1="751.4826" x2="385.3482" y2="-29.7486" gradientTransform="matrix(1 0 0 -1 0 663.6378)">
		<stop  offset="0.4169" style="stop-color:#000000"/>
		<stop  offset="0.8808" style="stop-color:#000000;stop-opacity:2.000000e-02"/>
	</linearGradient>
	
		<rect x="-12.8" y="0" style="fill:url(#SVGID_00000103260326123163031360000010667533074333985205_);filter:url(#Adobe_OpacityMaskFilter);" width="591.8" height="664.9"/>
</mask>
<g class="st2">
	<g>
		<path class="st3" d="M326.4,111.1c0-5.1,0-10.3,0-15.5c0-1.2,0.1-1.9,1.6-1.9c1.6,0,1.8,0.7,1.7,2c0,6.3,0,12.6,0,18.9
			c0,0.7,0,2.1-1.5,2.1c-0.9,0-2.1,0-2.6-1c-3.4-5.3-6.9-10.6-10.3-16c-0.2-0.3-0.4-0.6-0.6-1c0,5.4-0.1,10.7,0,16.1
			c0,1.6-0.5,2-2,1.9c-1-0.1-1.4-0.4-1.4-1.3c0-6.7-0.1-13.3-0.1-20c0-0.5,0.3-1.7,1.8-1.7c0.9,0,1.7-0.2,2.5,1
			c3.5,5.5,7.1,10.9,10.6,16.4C326.3,111,326.5,111.1,326.4,111.1z"/>
		<path class="st3" d="M341.2,116.5c-1.7,0-3.4,0-5.1,0c-0.9,0-1.4-0.3-1.4-1.3c0-6.8,0-13.6,0-20.3c0-0.9,0.4-1.3,1.3-1.3
			c3.3,0,6.7,0,10,0c1.1,0,1.2,0.5,1.3,1.4c0,0.9-0.3,1.4-1.3,1.4c-2.1,0-4.2,0-6.2,0c-1,0-1.5,0.3-1.5,1.4c0.1,1.4,0,2.7,0,4.1
			c0,1,0.4,1.3,1.4,1.3c1.9-0.1,3.7,0,5.6,0c1.1,0,1.4,0.4,1.4,1.4c0,1.1-0.5,1.4-1.5,1.4c-1.8,0-3.6,0-5.4,0
			c-1.2-0.1-1.5,0.4-1.5,1.5c0.1,1.6,0,3.3,0,4.9c0,1,0.4,1.3,1.4,1.3c2.2-0.1,4.5,0,6.7,0c1,0,1.4,0.4,1.4,1.3c0,1-0.3,1.5-1.4,1.5
			C344.6,116.5,342.9,116.5,341.2,116.5z"/>
		<path class="st3" d="M355.6,96.5c-1.9,0-3.4,0-5,0c-1,0-1.2-0.4-1.2-1.3c0-0.8,0-1.5,1.2-1.5c4.6,0,9.2,0,13.8,0
			c1.1,0,1.2,0.6,1.2,1.5c0,0.9-0.3,1.4-1.3,1.4c-1.6-0.1-3.2,0-5.1,0c0,0.8,0,1.4,0,2c0,5.4,0,10.8,0,16.2c0,1.4-0.3,1.9-1.8,1.9
			c-1.4,0-1.7-0.6-1.7-1.8c0.1-5.4,0-10.8,0-16.2C355.6,97.9,355.6,97.4,355.6,96.5z"/>
		<path class="st3" d="M305,113c1.2,0,1.9,0.9,1.9,1.9c0,1.2-0.6,1.9-1.9,1.9c-1.1,0-1.8-0.8-1.8-1.9C303.2,113.5,303.9,113,305,113
			z"/>
	</g>
	<g>
		<path class="st4" d="M359.2,66.2h-49.7c-7.8,0-14.1,6.3-14.1,14.1V130c0,7.8,6.3,14.1,14.1,14.1h49.7c7.8,0,14.1-6.3,14.1-14.1
			V80.3C373.3,72.5,367,66.2,359.2,66.2z"/>
		<path class="st5" d="M359.2,65.8h-49.7c-8,0-14.5,6.5-14.5,14.5V130c0,8,6.5,14.5,14.5,14.5h49.7c8,0,14.5-6.5,14.5-14.5V80.3
			C373.7,72.3,367.2,65.8,359.2,65.8z"/>
	</g>
	<g>
		<path class="st4" d="M146,25.7h48.8c8.3,0,15,6.7,15,15v48.8c0,8.3-6.7,15-15,15H146c-8.3,0-15-6.7-15-15V40.7
			C131,32.4,137.8,25.7,146,25.7z"/>
		<path class="st5" d="M146,25.2h48.8c8.5,0,15.5,6.9,15.5,15.5v48.8c0,8.5-6.9,15.5-15.5,15.5H146c-8.5,0-15.5-6.9-15.5-15.5V40.7
			C130.6,32.1,137.5,25.2,146,25.2z"/>
	</g>
	<path class="st6" d="M170.3,75.9c16.6,0.3,30.1-4.4,30.2-10.4c0.1-6-13.3-11.1-29.8-11.3c-16.6-0.3-30.1,4.4-30.2,10.4
		C140.3,70.6,153.7,75.6,170.3,75.9z"/>
	<path class="st6" d="M160.4,70.3c8.1,13.7,19.1,22.5,24.6,19.6c5.5-2.9,3.5-16.4-4.6-30.1s-19.1-22.5-24.6-19.6
		C150.3,43.1,152.4,56.6,160.4,70.3z"/>
	<path class="st6" d="M160.6,59.5c-8.5,13.4-11,26.8-5.6,29.9c5.4,3.1,16.7-5.3,25.2-18.8c8.5-13.4,11-26.8,5.6-29.9
		C180.4,37.6,169.1,46,160.6,59.5z"/>
	<g>
		<path class="st7" d="M181.8,65.3c-0.8-1.6-1.6-3.2-2.6-4.8c-1-1.6-1.9-3.2-3-4.6c-1.8-0.2-3.7-0.3-5.7-0.3c-2,0-3.9,0-5.7,0.1
			c-1.1,1.4-2.1,2.9-3.1,4.5c-1,1.6-1.9,3.2-2.7,4.7c0.8,1.6,1.6,3.2,2.6,4.8c1,1.6,1.9,3.2,3,4.6c1.8,0.2,3.7,0.3,5.7,0.3
			c2,0,3.9,0,5.7-0.1c1.1-1.4,2.1-2.9,3.1-4.5C180,68.5,180.9,66.9,181.8,65.3z"/>
	</g>
	<path class="st3" d="M170.4,70.3c3.1,0.1,5.6-2.3,5.7-5.2c0-2.9-2.4-5.3-5.5-5.4c-3.1-0.1-5.6,2.3-5.7,5.2
		C164.8,67.9,167.3,70.3,170.4,70.3z"/>
	<g>
		<g>
			<path class="st3" d="M443.1,393.3c-0.7-0.1-1.4-0.1-2.2-0.2c-3.5-0.5-6.6-1.8-9.4-3.9c-4.2-3.2-6.8-7.4-7.6-12.6
				c-1-6.2,0.3-11.8,4.1-16.7c2.9-3.7,6.7-6,11.3-7c4.8-1.1,9.4-0.5,13.7,1.7c1.8,0.9,3.5,2.1,4.9,3.6c0,0,0.1,0.1,0.1,0.1
				c-0.5,0.5-1,1-1.4,1.5c-0.9-0.7-1.7-1.4-2.6-2c-2.2-1.6-4.7-2.6-7.4-3c-3.9-0.6-7.7-0.1-11.2,1.8c-5.2,2.8-8.4,7.1-9.4,13
				c-0.6,4-0.2,7.9,1.6,11.6c1.2,2.4,2.8,4.3,4.8,6c2.9,2.4,6.3,3.7,10,4c4.8,0.3,9.1-1,12.8-4.1c0.4-0.3,0.8-0.7,1.2-1
				c0.5,0.5,1,1,1.6,1.5c-0.6,0.5-1.2,1.1-1.8,1.6c-2.9,2.3-6.3,3.7-10,4.2c-0.6,0.1-1.3,0.1-1.9,0.2
				C444,393.3,443.5,393.3,443.1,393.3z"/>
			<path class="st3" d="M485.9,373.7c-0.8,0-1.7,0-2.5,0c-3.6,0-7.2,0-10.8,0c-0.2,0-0.3,0-0.6,0c0.1,0.7,0.1,1.3,0.2,1.9
				c0.2,1.4,0.7,2.7,1.7,3.8c1.1,1.2,2.5,1.7,4.1,1.8c2.5,0.1,4.2-0.5,6.6-2.2c0,0.6,0,1.1,0,1.6c0,0.5-0.1,0.8-0.6,1.1
				c-1.5,0.9-3.2,1.4-5,1.5c-1.5,0.1-2.9,0-4.3-0.5c-2.2-0.9-3.6-2.5-4.4-4.6c-1-2.9-1.2-5.9-0.1-8.8c1-2.9,2.9-4.9,6-5.6
				c2.3-0.6,4.5-0.3,6.5,1.1c1.3,1,2.1,2.3,2.5,3.9C485.8,370.3,485.9,371.4,485.9,373.7z M472,371.5c3.9,0,7.6,0,11.4,0
				c-0.1-0.6-0.1-1.2-0.2-1.8c-0.2-1.3-0.7-2.4-1.7-3.3c-1.3-1.1-2.9-1.3-4.5-1c-2.1,0.4-3.4,1.8-4.2,3.7
				C472.5,369.9,472.2,370.6,472,371.5z"/>
			<path class="st3" d="M460.6,367.7c0.1-0.2,0.2-0.5,0.3-0.7c0.7-1.6,1.7-2.9,3.5-3.4c1-0.3,2-0.3,3,0c0.1,0,0.3,0.2,0.3,0.3
				c0,0.7,0,1.5,0,2.3c-0.9-0.6-1.9-0.7-2.9-0.5c-1.4,0.2-2.3,1.1-2.9,2.3c-0.8,1.4-1.2,3-1.2,4.6c-0.1,3.3,0,6.5-0.1,9.8
				c0,0.2,0,0.3,0,0.5c-0.8,0-1.5,0-2.3,0c0-6.3,0-12.6,0-19c0.7,0,1.5,0,2.3,0c0,1.3,0,2.7,0,4
				C460.5,367.7,460.5,367.7,460.6,367.7z"/>
		</g>
		<path class="st8" d="M443.8,365.8c3.1,0,6.6,1.5,6.6,7.2s-4.3,7.2-6.6,7.2s-6.8-1.2-6.8-7.1C437,367.1,440.8,365.8,443.8,365.8z"
			/>
	</g>
	<g>
		<path class="st4" d="M429.8,333.1l50.6,0.6c7.8,0.1,14,6.5,13.9,14.2l-0.6,50.6c-0.1,7.8-6.5,14-14.2,13.9l-50.6-0.6
			c-7.8-0.1-14-6.5-13.9-14.2l0.6-50.6C415.7,339.2,422.1,333,429.8,333.1z"/>
		<path class="st5" d="M429.8,332.6l50.6,0.6c8,0.1,14.5,6.7,14.4,14.7l-0.6,50.6c-0.1,8-6.7,14.5-14.7,14.4l-50.6-0.6
			c-8-0.1-14.5-6.7-14.4-14.7l0.6-50.6C415.2,339,421.8,332.5,429.8,332.6z"/>
	</g>
	<g>
		<polygon class="st3" points="228,218.1 228,196.2 266.2,188.6 245,175.6 245,183.9 225.6,189.6 219.6,197.4 219.6,214.3 		"/>
		<polygon class="st3" points="228.2,218.5 266.4,221.1 266.2,188.6 279.2,187 279.2,223 264.4,235.2 241.3,226.9 241.3,235.2 		"/>
	</g>
	<g>
		<path class="st4" d="M224.5,166h50.6c7.8,0,14.1,6.3,14.1,14.1v50.6c0,7.8-6.3,14.1-14.1,14.1h-50.6c-7.8,0-14.1-6.3-14.1-14.1
			v-50.6C210.4,172.3,216.7,166,224.5,166z"/>
		<path class="st5" d="M224.5,165.5h50.6c8,0,14.5,6.5,14.5,14.5v50.6c0,8-6.5,14.5-14.5,14.5h-50.6c-8,0-14.5-6.5-14.5-14.5v-50.6
			C209.9,172,216.5,165.5,224.5,165.5z"/>
	</g>
	<path class="st3" d="M420.5,227.6l-22.8,5.4l-3.4,6.4l-7.2-0.3L371,256.2l16.1,17.1l7.2-0.3l3.4,6.4l22.8,5.4l6.7-22.5l-3.8-6.1
		l3.8-6.1L420.5,227.6 M394.9,240.5l18.1-4.8l-10.4,18.1l-20.9-0.1L394.9,240.5z M394.9,271.9l-13.2-13.3l20.9-0.1l10.4,18.1
		L394.9,271.9z M417.2,274.3l-10.5-18.1l10.5-18.1l4.9,18.1L417.2,274.3z"/>
	<g>
		<path class="st4" d="M374.7,216.8h50.6c7.8,0,14.1,6.3,14.1,14.1v50.6c0,7.8-6.3,14.1-14.1,14.1h-50.6c-7.8,0-14.1-6.3-14.1-14.1
			v-50.6C360.6,223.1,366.9,216.8,374.7,216.8z"/>
		<path class="st5" d="M374.7,216.3h50.6c8,0,14.5,6.5,14.5,14.5v50.6c0,8-6.5,14.5-14.5,14.5h-50.6c-8,0-14.5-6.5-14.5-14.5v-50.6
			C360.2,222.8,366.7,216.3,374.7,216.3z"/>
	</g>
	<g>
		<defs>
			
				<rect id="SVGID_00000070111521607803314240000002254633489698044333_" x="370" y="226.2" transform="matrix(1.918357e-03 -1 1 1.918357e-03 143.057 655.7014)" width="60" height="60"/>
		</defs>
		<clipPath id="SVGID_00000165195931065136489440000007221443899063867067_">
			<use xlink:href="#SVGID_00000070111521607803314240000002254633489698044333_"  style="overflow:visible;"/>
		</clipPath>
	</g>
	<g>
		<path class="st3" d="M302.2,352.2c3.8,2.3,7.7,4.6,11.6,7c-1.3,1.8-2.7,3.4-4.2,4.9c-4.3,3.9-9.3,6.4-15,7.2
			c-8.3,1.2-15.7-0.8-22.3-6c-2.3-1.8-4.3-4.1-6-6.5c-2.5-3.5-4-7.5-4.6-11.7c-0.9-6,0.1-11.7,2.8-17.1c1.1-2.2,2.5-4.2,4.2-6.1
			c3.5-4,7.7-6.7,12.7-8.4c3.5-1.2,7.2-1.6,10.9-1.3c4.8,0.4,9.2,1.9,13.3,4.4c4.1,2.5,7.4,5.9,9.9,10c0.5,0.8,0.5,0.8-0.3,1.3
			c-3.5,2-7,4.1-10.5,6.1c-0.9,0.5-0.8,0.6-1.3-0.3c-2.4-3.7-5.7-6.3-10.1-7.4c-3.6-0.9-7.1-0.1-10.3,1.7c-3,1.7-5.2,4.3-6.4,7.5
			c-1.6,4.2-1.4,8.2,0.6,12.2c2.2,4.5,5.9,7.1,10.7,7.9c5.7,0.9,10.4-0.9,14.1-5.3C302.1,352.2,302.1,352.2,302.2,352.2z"/>
		<path class="st3" d="M318,339.8c0-0.8,0-1.6,0-2.5c1,0,2.1,0,3.1,0c0,0.8,0,1.6,0,2.5c0.9,0,1.7,0,2.5,0c0,1,0,1.9,0,2.8
			c0,0.1-0.3,0.4-0.5,0.4c-0.6,0-1.3,0-2,0c0,1.2,0,2.4,0,3.7c0.8,0,1.6,0,2.4,0c0,1.1,0,2.1,0,3.2c-0.8,0-1.6,0-2.5,0
			c0,0.8,0,1.6,0,2.5c-1.1,0-2.1,0-3.1,0c0-0.8,0-1.6,0-2.4c-1.3,0-2.5,0-3.8,0c0,0.7,0,1.3,0,2c0,0.2-0.2,0.5-0.3,0.5
			c-0.9,0-1.8,0-2.8,0c0-0.9,0-1.7,0-2.5c-0.9,0-1.7,0-2.5,0c0-1.1,0-2,0-3.1c0.8,0,1.6,0,2.5,0c0-1.3,0-2.5,0-3.8
			c-0.8,0-1.6,0-2.5,0c0-1.1,0-2.1,0-3.1c0.8,0,1.6,0,2.5,0c0-0.9,0-1.7,0-2.5c1.1,0,2,0,3.1,0c0,0.8,0,1.6,0,2.5
			C315.5,339.8,316.7,339.8,318,339.8z M318,346.7c0-1.3,0-2.5,0-3.7c-1.2,0-2.4,0-3.7,0c0,1.2,0,2.5,0,3.7
			C315.6,346.7,316.7,346.7,318,346.7z"/>
	</g>
	<g>
		<path class="st4" d="M322.9,303.9h-62.6c-4.2,0-7.6,3.4-7.6,7.6v62.6c0,4.2,3.4,7.6,7.6,7.6h62.6c4.2,0,7.6-3.4,7.6-7.6v-62.6
			C330.5,307.3,327.1,303.9,322.9,303.9z"/>
		<path class="st5" d="M322.9,303.4h-62.6c-4.5,0-8.1,3.6-8.1,8.1v62.6c0,4.5,3.6,8.1,8.1,8.1h62.6c4.5,0,8.1-3.6,8.1-8.1v-62.6
			C330.9,307,327.3,303.4,322.9,303.4z"/>
	</g>
	<g>
		<path class="st3" d="M295.8,484.1c1.9,0,6,0.2,7.8,0.4c-0.2-1.1-0.4-2.2-0.4-3.5c0-3.9,1.4-7,3.4-9.4c-0.7-3.1-1.7-8.9,0.1-9.9
			c2.1-1.3,7.2,1.8,9.2,4.1c3.1-1.1,6.1-1.5,7.9-1.5c1.8,0,4.8,0.4,7.9,1.5c2-2.2,7.1-5.3,9.2-4.1c1.8,1.1,0.8,6.9,0.1,9.9
			c2,2.4,3.4,5.5,3.4,9.4c0,1.3-0.1,2.4-0.4,3.5c1.8-0.1,5.8-0.4,7.8-0.4c0.5,0,1,0.1,1.4,0.1c0.1-1.1,0.2-2.1,0.2-3.2
			c0-17.1-14-31-31.2-31c-17.2,0-31.2,13.9-31.2,31c0,1.3,0.1,2.7,0.3,4C291.1,485,293.3,484.2,295.8,484.1z"/>
		<path class="st3" d="M343.6,485.5c-0.1,0.2-0.1,0.4-0.2,0.6c1.6,0,6,0.2,8,0.4c0.4,0.1,0.9,0.1,1.3,0.2c0.1-0.6,0.2-1.2,0.3-1.7
			c-0.4-0.1-0.9-0.1-1.4-0.2C348.9,484.7,345,485.3,343.6,485.5z"/>
		<path class="st3" d="M304,486.1c-0.1-0.2-0.1-0.4-0.2-0.6c-1.5-0.3-5.3-0.9-8-0.7c-3.4,0.3-4.6,1-4.6,1c0.1,0.7,0.2,1.3,0.4,1.9
			c0.5-0.2,2.3-1,4.4-1.3C298,486.3,302.4,486.2,304,486.1z"/>
		<path class="st3" d="M313.4,503.7C313.4,503.6,313.4,503.6,313.4,503.7l-5.7,0c0,0-2.6-0.3-3.9-2.8c-1.3-2.5-4-6.2-5.2-6.7
			c1.3-0.2,3.5,0.1,4.5,1.3c1,1.1,2.8,4.2,5.1,4.2c1.6,0,4.6,0,6.2-0.1c0.7-1.4,1.7-2.9,3.3-4c0,0-9.7-0.9-13.3-8.4
			c-1.2-0.1-5.5-0.4-8.3,0.1c-2.7,0.5-4,1.1-4.3,1.4c2.7,10.7,11,19.1,21.6,22.2V503.7z"/>
		<path class="st3" d="M351.2,487.3c-2.9-0.5-7.1-0.2-8.3-0.1c-3.6,7.5-13.3,8.4-13.3,8.4c3.5,2.4,4.3,6.4,4.3,8v6.1
			c9.3-3.8,16.4-12.1,18.6-22.1C352.1,487.5,351.7,487.4,351.2,487.3z"/>
	</g>
	<g>
		<path class="st4" d="M296.7,440.8h50.6c7.8,0,14.1,6.3,14.1,14.1v50.6c0,7.8-6.3,14.1-14.1,14.1h-50.6c-7.8,0-14.1-6.3-14.1-14.1
			v-50.6C282.6,447.1,288.9,440.8,296.7,440.8z"/>
		<path class="st5" d="M296.7,440.3h50.6c8,0,14.5,6.5,14.5,14.5v50.6c0,8-6.5,14.5-14.5,14.5h-50.6c-8,0-14.5-6.5-14.5-14.5v-50.6
			C282.2,446.8,288.7,440.3,296.7,440.3z"/>
	</g>
	<path class="st3" d="M192.3,458.2c-0.7,4.5-3.1,7.2-4.9,9c-1.8,1.8-13.3,11.5-28.7,8.8c-15.4-2.7-13.9-17.5-13.9-19.9h40.1
		c0,0,1.9,0,2.7-1c-0.5-1.2-1.2-3.1-1-4.9c0.2-1.9,1.1-4.5,2.5-5.5c1.5,0.2,3.7,2.1,4.2,6.5c3.4-0.2,5.5,0.2,6.8,0.7
		c-1.9-15.4-15-27.3-30.9-27.3c-17.2,0-31.2,14-31.2,31.2c0,17.2,14,31.2,31.2,31.2c17.2,0,31.2-14,31.2-31.2c0-0.2,0-0.4,0-0.6
		C199,456.6,196.5,458.2,192.3,458.2z M176.5,449.9h5.4v5h-5.4V449.9z M169.6,437.1h5.4v5h-5.4V437.1z M169.6,443.5h5.4v5h-5.4
		V443.5z M169.6,449.9h5.4v5h-5.4V449.9z M162.8,443.5h5.4v5h-5.4V443.5z M162.8,449.9h5.4v5h-5.4V449.9z M155.9,443.5h5.4v5h-5.4
		V443.5z M155.9,449.9h5.4v5h-5.4V449.9z M149.1,449.9h5.4v5h-5.4V449.9z"/>
	<g>
		<path class="st4" d="M143.8,416.4h50.6c7.8,0,14.1,6.3,14.1,14.1v50.6c0,7.8-6.3,14.1-14.1,14.1h-50.6c-7.8,0-14.1-6.3-14.1-14.1
			v-50.6C129.8,422.7,136.1,416.4,143.8,416.4z"/>
		<path class="st5" d="M143.8,415.9h50.6c8,0,14.5,6.5,14.5,14.5v50.6c0,8-6.5,14.5-14.5,14.5h-50.6c-8,0-14.5-6.5-14.5-14.5v-50.6
			C129.3,422.4,135.8,415.9,143.8,415.9z"/>
	</g>
	<g>
		<path class="st3" d="M175,299.6l-5.2-22.9c-0.3-1.2-1.4-2.7-2.6-3.2L146,263.2c-1.1-0.6-3-0.6-4.2,0l-21.2,10.2
			c-1.1,0.6-2.3,2-2.6,3.2l-5.2,22.9c-0.3,1.2,0.1,3.1,0.9,4.1l14.7,18.4c0.8,1,2.5,1.8,3.7,1.8h23.5c1.3,0,3-0.8,3.7-1.8l14.7-18.4
			C174.9,302.6,175.3,300.8,175,299.6z M171.3,302.6L158,319.3c-0.7,0.9-2.2,1.6-3.4,1.6h-21.3c-1.1,0-2.7-0.7-3.4-1.6l-13.3-16.7
			c-0.7-0.9-1.1-2.5-0.8-3.7l4.7-20.8c0.3-1.1,1.3-2.4,2.3-2.9l19.2-9.2c1-0.5,2.7-0.5,3.8,0l19.2,9.2c1,0.5,2.1,1.8,2.3,2.9
			l4.7,20.8C172.4,300.1,172,301.7,171.3,302.6z"/>
		<path class="st3" d="M164.6,298.5c-0.9-0.2-2.5-0.2-3.1-0.3c-0.6-0.1-0.7-0.2-0.9-0.4c-0.1-0.2-0.3-0.4-0.7-0.5c0,0-0.1,0-0.2-0.1
			c0.1-0.8,0.2-1.6,0.2-2.4c0-3.2-1-6.2-2.6-8.7c0,0,0.1-0.1,0.1-0.1c0.2-0.2,0.4-0.5,0.4-0.7c0-0.2,0.1-0.3,0.6-0.7
			c0.5-0.4,2-1.1,2.7-1.6c0.7-0.6,0.8-1.4,0.4-1.9s-1.2-0.6-1.9-0.1c-0.7,0.6-1.7,1.9-2.2,2.2c-0.5,0.4-0.6,0.5-0.8,0.4
			s-0.5,0-0.8,0.2c0,0,0,0-0.1,0c-2.6-2.8-6.2-4.7-10.3-5c0,0,0-0.1,0-0.1c0-0.3-0.1-0.6-0.3-0.8c-0.2-0.2-0.2-0.3-0.2-0.9
			c0-0.6,0.4-2.2,0.4-3.1s-0.6-1.5-1.2-1.5c-0.6,0-1.2,0.6-1.2,1.5s0.4,2.5,0.4,3.1c0,0.6,0,0.8-0.2,0.9c-0.2,0.2-0.3,0.4-0.3,0.8
			c0,0,0,0,0,0.1c-4,0.3-7.7,2.2-10.3,5c-0.1-0.1-0.1-0.1-0.1-0.1c-0.3-0.2-0.5-0.3-0.8-0.2c-0.2,0-0.4,0-0.8-0.4
			c-0.5-0.4-1.5-1.7-2.2-2.2c-0.7-0.6-1.6-0.4-1.9,0.1c-0.4,0.5-0.3,1.3,0.4,1.9c0.7,0.6,2.2,1.3,2.7,1.6c0.5,0.4,0.6,0.5,0.6,0.7
			c0,0.2,0.1,0.5,0.4,0.7c0,0,0.1,0.1,0.1,0.1c-1.7,2.5-2.6,5.5-2.6,8.8c0,0.8,0.1,1.5,0.2,2.3c-0.2,0-0.3,0.1-0.3,0.1
			c-0.3,0.1-0.5,0.3-0.7,0.5c-0.1,0.2-0.3,0.3-0.9,0.4s-2.3,0.1-3.1,0.3s-1.3,0.9-1.2,1.5c0.1,0.6,0.9,1.1,1.7,0.9s2.4-0.9,3-1.1
			s0.7-0.1,0.9,0c0.2,0.1,0.5,0.2,0.8,0.1c0,0,0.1,0,0.3-0.1c1.2,3.7,3.7,6.8,7,8.7c-0.1,0.2-0.1,0.3-0.2,0.4
			c-0.1,0.3-0.1,0.6-0.1,0.8c0.1,0.2,0,0.4-0.2,0.9c-0.3,0.6-1.3,1.8-1.7,2.6c-0.4,0.8-0.1,1.6,0.5,1.9s1.4,0,1.8-0.8
			c0.4-0.8,0.7-2.4,1-3c0.3-0.6,0.3-0.7,0.6-0.7c0.2-0.1,0.4-0.3,0.6-0.5c0,0,0.1-0.2,0.2-0.4c1.8,0.7,3.7,1,5.7,1
			c1.9,0,3.8-0.3,5.5-1c0.1,0.2,0.2,0.3,0.2,0.3c0.2,0.3,0.4,0.5,0.6,0.5c0.2,0.1,0.3,0.2,0.6,0.7c0.3,0.6,0.6,2.2,1,3
			c0.4,0.8,1.2,1.1,1.8,0.8c0.6-0.3,0.9-1.1,0.5-1.9c-0.4-0.8-1.4-2.1-1.7-2.6c-0.3-0.6-0.3-0.7-0.2-0.9c0.1-0.2,0.1-0.5-0.1-0.8
			c0,0-0.1-0.1-0.1-0.3c3.3-1.9,5.9-5,7.1-8.7c0.1,0,0.2,0,0.2,0c0.3,0.1,0.6,0,0.8-0.1s0.3-0.1,0.9,0c0.6,0.1,2.1,0.9,3,1.1
			c0.9,0.2,1.6-0.3,1.7-0.9C165.9,299.5,165.5,298.7,164.6,298.5z M156.7,294.9c0,0.5,0,1-0.1,1.5c-2.6-0.7-5.7-1.6-6-1.8
			c-0.5-0.2-0.8-0.2-0.9-0.9c-0.1-0.6,0.1-0.8,0.5-1.2c0.2-0.3,2.8-2.4,4.8-4.2C156,290.3,156.7,292.5,156.7,294.9z M153,285.9
			c-2.2,1.6-4.9,3.5-5.2,3.7c-0.5,0.3-0.7,0.5-1.3,0.2c-0.6-0.3-0.6-0.5-0.7-1.1c0-0.3-0.2-3.7-0.3-6.4
			C148.4,282.6,151,284,153,285.9z M144.9,293l1.2,1.5l-0.4,1.9l-1.8,0.9l-1.8-0.9l-0.4-1.9l1.2-1.5H144.9z M142.5,282.3
			c-0.1,2.7-0.3,6-0.4,6.4c-0.1,0.6-0.1,0.8-0.7,1.1c-0.6,0.3-0.8,0.1-1.3-0.2c-0.3-0.2-3-2.1-5.1-3.7
			C137,284,139.6,282.6,142.5,282.3z M131.3,294.9c0-2.4,0.7-4.6,1.8-6.5c2,1.8,4.4,4,4.7,4.2c0.4,0.4,0.6,0.6,0.5,1.2
			c-0.2,0.6-0.4,0.7-0.9,0.9c-0.3,0.1-3.4,1-5.9,1.7C131.3,295.8,131.3,295.4,131.3,294.9z M132.1,299.3c2.6-0.4,5.7-1,6.1-1
			c0.6-0.1,0.8-0.1,1.2,0.4c0.4,0.5,0.3,0.7,0.1,1.3c-0.1,0.3-1.3,3.2-2.4,5.6C134.9,304.1,133.1,301.9,132.1,299.3z M144,307.6
			c-1.4,0-2.8-0.2-4.1-0.7c1.3-2.3,2.8-5,3-5.3c0.3-0.5,0.4-0.7,1.1-0.7c0.7,0,0.8,0.2,1.1,0.7c0.2,0.3,1.7,3,2.9,5.4
			C146.7,307.4,145.4,307.6,144,307.6z M150.7,305.7c-1-2.4-2.2-5.4-2.3-5.7c-0.2-0.6-0.3-0.8,0.1-1.3c0.4-0.5,0.6-0.4,1.2-0.4
			c0.3,0,3.5,0.6,6.1,1.1C154.9,302,153.1,304.2,150.7,305.7z"/>
	</g>
	<g>
		<path class="st4" d="M118.5,254.2h50.6c7.8,0,14.1,6.3,14.1,14.1v50.6c0,7.8-6.3,14.1-14.1,14.1h-50.6c-7.8,0-14.1-6.3-14.1-14.1
			v-50.6C104.4,260.5,110.7,254.2,118.5,254.2z"/>
		<path class="st5" d="M118.5,253.7h50.6c8,0,14.5,6.5,14.5,14.5v50.6c0,8-6.5,14.5-14.5,14.5h-50.6c-8,0-14.5-6.5-14.5-14.5v-50.6
			C104,260.2,110.5,253.7,118.5,253.7z"/>
	</g>
	<g>
		<g class="st9">
			<path class="st8" d="M359.4,608.3c-0.8,1.2-1.4,2.1-1.8,2.4c-0.8,0.8-2,1.4-3.1,1.6c-0.1,0-0.3,0-0.5,0.1
				c-1.2,0.1-1.9,0.3-2.2,0.5c0.3,0.4,1.6,1.1,3.6,1c1.6-0.1,4.4-0.5,6.2-3.1c0-0.2,0-0.5,0-0.6
				C361.5,609.4,360.7,608.4,359.4,608.3z"/>
			<path class="st8" d="M379.4,605.2c-0.5-0.7-0.6-1-0.6-1.2c-0.2-0.6-1.9-3.9-2.5-5c-0.7-1.2-2.8-5.8-3-8.8
				c-0.3-4.3,3.6-4.9,5.1-5.1c1-0.1,1.8-0.1,2.5-0.1c-0.4-1.6-1.3-3.2-2.6-5.1c-0.6-0.9-4-5.4-9.9-7.1c-2.3-0.7-4.7-0.8-7.2-0.4
				c-1.8,0.3-3.4,1-4.8,2.1c-3.8,3.1-5.1,8.7-5.4,12.2c1.2-0.6,2.7-1.3,3.9-1.4c1.5-0.1,5.5-0.3,6.4,3c0.7,2.3,1.4,5.9,0.8,9.3
				c-0.6,3.3-1.7,5.4-2.1,6l0,0c-0.1,0.2-0.3,0.9-0.8,2.9c0,0,0,0,0.1,0c2.4,0,4.1,1.9,4.1,3.7c0,0.2,0,0.4,0,0.9c0,0.3,0,0.5,0,0.9
				c-0.1,3.1-0.3,9.6,0,12.8c0.4,3.8,3.8,5.1,5,5.1c1.2,0,4.2-0.2,5.8-1.6c1.3-1.2,2.3-3.7,2.7-6.7c0.3-2.1,0.6-6.1,0.7-8.7
				c0-0.6,0.1-1.1,0.1-1.5v0c0-0.3,0-0.6,0.1-0.8c0.2-1.7,1-3,2.6-4.1C380,606.1,379.7,605.6,379.4,605.2z"/>
			<path class="st8" d="M358.4,602.8L358.4,602.8c0.4-0.6,1.4-2.5,1.9-5.5c0.6-3.1-0.2-6.4-0.8-8.5c-0.4-1.3-1.7-1.8-4.6-1.6
				c-0.9,0.1-2.4,0.7-4,1.6c0,0.3,0,0.5,0.1,0.7c0.4,2.8,0.1,4.1-0.1,5.4c-0.2,0.9-0.4,1.7-0.4,3.2c0,3,1.1,5.3,3.4,6.8
				c1.2,0.8,2.5,1.2,3.5,1.4C358.1,603.3,358.4,602.9,358.4,602.8z M355.6,588.8c0-0.7,1.3-0.7,1.3-0.7c0.7,0,2.1,0.4,2.1,1
				s-0.7,1.2-1.5,1.2S355.6,589.5,355.6,588.8z"/>
			<path class="st8" d="M348.7,598c0-1.6,0.2-2.6,0.4-3.6c0.3-1.2,0.5-2.3,0.1-4.8c-0.1-0.4-0.1-0.9-0.1-1.4
				c-0.1-2.4,0.4-5.2,1.2-7.7c0.9-2.7,2.2-5,3.9-6.7c-0.8-0.4-1.8-0.8-3-0.9c-0.3,0-0.7-0.1-1.1-0.2c-3.2-0.5-8.5-1.4-12.5,1.9
				c-4.5,3.8-3.5,11.9-2.5,16.4c1.2,5.3,3,12.6,4.6,16c2,4.1,4.1,6.1,4.7,6.1c0,0,0,0,0,0c1,0,1.7-0.6,2.7-1.7
				c0.7-0.8,3.5-4.1,4.9-5.7C349.9,603.9,348.7,601.3,348.7,598z"/>
			<path class="st8" d="M381.6,607.9c-1.6,1-1.9,2.1-2,2.9c0,0,0,0,0,0c0.7,0.2,1.7,0.4,2.8,0.5c2.3,0.2,5.5-1,6.3-1.6
				c0.5-0.4,1-0.9,1.2-1.2c-0.4,0.1-0.9,0.2-1.3,0.3c-0.5,0.1-1.1,0.3-1.6,0.4c-1.8,0.3-3.4-0.1-4.4-0.4
				C382.5,608.7,382.1,608.5,381.6,607.9z"/>
			<path class="st8" d="M389.8,578.3c-2.1-4.1-6.7-6.3-10.4-7c-2.3-0.4-5.5,0.2-7.9,0.7c3.8,1.7,6.7,4.5,8.3,6.9
				c1.4,2.1,2.8,4.3,3.1,7.1v0c0.1,1,0.1,2-0.1,3.1c-0.3,1.7-0.1,3.6,0.1,5.4c0.2,2.1,0.5,4,0,5.8c-0.6,2.3-1.3,3.7-1.7,4.4
				c0.2,0.2,0.3,0.5,0.5,0.7c0.8-0.9,1.9-2.8,3.5-6c1.7-3.3,2.9-6.1,2.9-6.6c0.1-0.3,0.2-0.9,0.4-1.7
				C389.5,588.2,391.4,581.4,389.8,578.3z"/>
			<path class="st8" d="M381.2,586.8c-0.6-0.1-1.5-0.1-2.5,0.1c-2.7,0.4-3.7,1.2-3.6,3.2c0.2,2.7,2.2,7.1,2.7,8
				c0.4,0.6,1.8,3.2,2.4,4.7c0.3-0.7,0.7-1.6,1-2.8c0.4-1.5,0.2-3.3-0.1-5.2c-0.2-1.9-0.5-4-0.1-5.9
				C381.2,588.1,381.2,587.5,381.2,586.8z M377.9,589.5c-1.1,0-1.4-0.6-1.4-1c0-0.4,0.9-0.9,1.9-0.9c0.6,0,1.2,0.1,1.2,0.5
				S379,589.5,377.9,589.5z"/>
		</g>
		<g>
			<path class="st3" d="M388.2,607.1c-0.5,0.1-1,0.3-1.4,0.3c-1.4,0.2-2.6-0.1-3.4-0.3c0,0-0.1-0.1-0.4-0.3c2.5-3,6.8-12.1,7.1-13.7
				c0-0.2,0.2-0.8,0.4-1.5c0.9-3.4,2.8-10.4,1-14.2c-1.1-2.1-2.8-4-5-5.4c-2-1.3-4.3-2.2-6.7-2.6c-3.7-0.7-9.2,0.9-11.1,1.5
				c-2.5-0.7-5.1-0.8-7.7-0.4c-1.9,0.3-3.7,1-5.2,2.1c-0.9-0.5-2.4-1.2-4.2-1.5c-0.3,0-0.7-0.1-1.1-0.2c-3.2-0.5-9.3-1.5-13.9,2.3
				c-5.3,4.4-4.2,13.3-3.1,18.2c1.2,5.4,3,12.9,4.7,16.4c0.4,0.7,3.5,7.1,6.3,7.1c0,0,0.1,0,0.1,0c1.8-0.1,3-1.2,4-2.3
				c0.7-0.8,3.6-4.2,5.1-5.8c1.4,0.8,2.8,1.2,3.7,1.3c-0.5,0.7-0.8,1.2-1,1.4c-0.5,0.5-1.4,1-2.1,1.1c-0.1,0-0.3,0-0.5,0.1
				c-1.4,0.2-3.9,0.4-3.9,2.1c0,0.4,0.1,0.9,0.7,1.5c0.9,0.9,2.7,1.5,4.5,1.5c0.1,0,0.2,0,0.3,0c1.5-0.1,4-0.4,6.1-2.2
				c-0.1,3.4-0.2,8.6,0.1,11.5c0.5,4.7,4.6,6.7,6.8,6.7c1.8,0,5.1-0.3,7-2.1c1.7-1.5,2.9-4.3,3.3-7.8c0.3-2.2,0.6-6.2,0.8-8.8
				c0-0.1,0-0.3,0-0.4c0.7,0.2,1.7,0.4,2.8,0.5c0.3,0,0.5,0,0.8,0c2.7,0,5.7-1.2,6.8-1.9c1.2-0.9,2.8-2.6,1.9-3.9
				C391.1,606.3,389.8,606.7,388.2,607.1z M377.9,598c-0.6-0.9-2.5-5.3-2.7-8c-0.1-1.9,0.8-2.8,3.6-3.2c1-0.1,1.9-0.1,2.5-0.1
				c0,0.6,0,1.2-0.1,1.9c-0.3,2-0.1,4,0.1,5.9c0.2,1.9,0.4,3.7,0.1,5.2c-0.3,1.2-0.7,2.2-1,2.8C379.6,601.2,378.2,598.6,377.9,598z
				 M382.9,585.9c-0.3-2.7-1.7-5-3.1-7.1c-1.6-2.3-4.5-5.1-8.3-6.9c2.3-0.6,5.6-1.2,7.9-0.7c3.7,0.7,8.3,2.9,10.4,7
				c1.6,3.1-0.3,10-1.1,12.9c-0.2,0.8-0.4,1.3-0.4,1.7c-0.1,0.5-1.3,3.3-2.9,6.6c-1.6,3.1-2.8,5-3.5,6c-0.2-0.2-0.3-0.5-0.5-0.7
				c0.4-0.7,1.1-2.1,1.7-4.4c0.5-1.8,0.2-3.8,0-5.8c-0.2-1.8-0.4-3.7-0.1-5.4C383,588,383.1,587,382.9,585.9 M347.2,611.4
				c-1,1.1-1.7,1.7-2.7,1.7c0,0,0,0,0,0c-0.6,0-2.7-2-4.7-6.1c-1.6-3.3-3.4-10.7-4.6-16c-1-4.5-2.1-12.6,2.5-16.4
				c4-3.3,9.3-2.5,12.5-1.9c0.4,0.1,0.8,0.1,1.1,0.2c1.2,0.2,2.3,0.6,3,0.9c-1.7,1.7-3,4-3.9,6.7c-0.8,2.5-1.3,5.3-1.2,7.7
				c0,0.5,0.1,1,0.1,1.4c0.4,2.5,0.1,3.5-0.1,4.8c-0.2,0.9-0.4,1.9-0.4,3.6c0,3.2,1.2,5.9,3.4,7.7
				C350.7,607.3,347.9,610.6,347.2,611.4z M358.5,602.7L358.5,602.7c-0.1,0.2-0.3,0.6-1.1,3.5c-1-0.2-2.3-0.6-3.5-1.4
				c-2.2-1.5-3.4-3.8-3.4-6.8c0-1.4,0.2-2.3,0.4-3.2c0.3-1.3,0.6-2.6,0.1-5.4c0-0.2-0.1-0.5-0.1-0.7c1.6-1,3.1-1.6,4-1.6
				c2.8-0.2,4.2,0.3,4.6,1.6c0.6,2.2,1.3,5.4,0.8,8.5C359.8,600.3,358.8,602.1,358.5,602.7z M355.3,613.9c-2,0.1-3.3-0.7-3.6-1
				c0.3-0.2,1.1-0.3,2.2-0.5c0.2,0,0.4,0,0.5-0.1c1.1-0.2,2.3-0.8,3.1-1.6c0.4-0.4,1-1.2,1.8-2.4c1.3,0.1,2.2,1.1,2.2,1.9
				c0,0.1,0,0.4,0,0.6C359.7,613.4,356.8,613.8,355.3,613.9z M377.7,611.4c0,0.4-0.1,0.9-0.1,1.5c-0.2,2.6-0.5,6.6-0.7,8.7
				c-0.4,3-1.4,5.5-2.7,6.7c-1.6,1.4-4.6,1.6-5.8,1.6c-1.1,0-4.6-1.3-5-5.1c-0.3-3.3-0.1-9.7,0-12.8c0-0.3,0-0.6,0-0.9
				c0-0.5,0-0.8,0-0.9c0-1.7-1.7-3.7-4.1-3.7c0,0,0,0-0.1,0c0.5-1.9,0.8-2.7,0.8-2.9l0,0c0.4-0.7,1.5-2.7,2.1-6
				c0.6-3.5-0.2-7-0.8-9.3c-0.9-3.3-4.9-3.1-6.4-3c-1.2,0.1-2.7,0.7-3.9,1.4c0.2-3.5,1.5-9.1,5.4-12.2c1.4-1.1,3-1.9,4.8-2.1
				c2.5-0.4,4.9-0.2,7.2,0.4c6,1.7,9.3,6.2,9.9,7.1c1.3,1.9,2.2,3.5,2.6,5.1c-0.7,0-1.5,0-2.5,0.1c-1.5,0.2-5.4,0.7-5.1,5.1
				c0.2,3.1,2.2,7.6,3,8.8c0.6,1,2.4,4.4,2.5,5c0,0.2,0.1,0.5,0.6,1.2c0.3,0.4,0.6,0.9,0.9,1.3c-1.6,1.1-2.5,2.4-2.6,4.1
				C377.7,610.8,377.7,611.1,377.7,611.4 M388.7,609.8c-0.8,0.6-4,1.8-6.3,1.6c-1.2-0.1-2.2-0.3-2.8-0.5c0,0,0,0,0,0
				c0.1-0.8,0.4-1.9,2-2.9c0.6,0.6,0.9,0.8,1.2,0.9c1,0.4,2.5,0.8,4.4,0.4c0.5-0.1,1-0.2,1.6-0.4c0.4-0.1,0.9-0.2,1.3-0.3
				C389.7,608.9,389.3,609.4,388.7,609.8z"/>
			<path class="st3" d="M356.9,588c0.7,0,2.1,0.4,2.1,1c0,0.6-0.7,1.2-1.5,1.2c-0.8,0-1.8-0.8-1.8-1.5
				C355.6,588,356.9,588,356.9,588z"/>
			<path class="st3" d="M378.4,587.6c0.6,0,1.2,0.1,1.2,0.5c0,0.4-0.6,1.3-1.6,1.3s-1.4-0.6-1.4-1
				C376.5,588.1,377.4,587.6,378.4,587.6z"/>
		</g>
	</g>
	<g>
		<path class="st4" d="M337,559.9h50.6c7.8,0,14.1,6.3,14.1,14.1v50.6c0,7.8-6.3,14.1-14.1,14.1H337c-7.8,0-14.1-6.3-14.1-14.1V574
			C323,566.2,329.3,559.9,337,559.9z"/>
		<path class="st5" d="M337,559.4h50.6c8,0,14.5,6.5,14.5,14.5v50.6c0,8-6.5,14.5-14.5,14.5H337c-8,0-14.5-6.5-14.5-14.5V574
			C322.5,565.9,329,559.4,337,559.4z"/>
	</g>
</g>
</svg>
